<svg width="100" height="100" viewBox="0 0 100 100" fill="none" xmlns="http://www.w3.org/2000/svg">
<g clip-path="url(#clip0_140_2)">
<rect width="100" height="100" fill="black"/>
<path d="M60.1364 37C59.9545 34.7273 59.1023 32.9545 57.5795 31.6818C56.0795 30.4091 53.7955 29.7727 50.7273 29.7727C48.7727 29.7727 47.1705 30.0114 45.9205 30.4886C44.6932 30.9432 43.7841 31.5682 43.1932 32.3636C42.6023 33.1591 42.2955 34.0682 42.2727 35.0909C42.2273 35.9318 42.375 36.6932 42.7159 37.375C43.0795 38.0341 43.6477 38.6364 44.4205 39.1818C45.1932 39.7045 46.1818 40.1818 47.3864 40.6136C48.5909 41.0455 50.0227 41.4318 51.6818 41.7727L57.4091 43C61.2727 43.8182 64.5795 44.8977 67.3295 46.2386C70.0795 47.5795 72.3295 49.1591 74.0795 50.9773C75.8295 52.7727 77.1136 54.7955 77.9318 57.0455C78.7727 59.2955 79.2045 61.75 79.2273 64.4091C79.2045 69 78.0568 72.8864 75.7841 76.0682C73.5114 79.25 70.2614 81.6705 66.0341 83.3295C61.8295 84.9886 56.7727 85.8182 50.8636 85.8182C44.7955 85.8182 39.5 84.9205 34.9773 83.125C30.4773 81.3295 26.9773 78.5682 24.4773 74.8409C22 71.0909 20.75 66.2955 20.7273 60.4545H38.7273C38.8409 62.5909 39.375 64.3864 40.3295 65.8409C41.2841 67.2955 42.625 68.3977 44.3523 69.1477C46.1023 69.8977 48.1818 70.2727 50.5909 70.2727C52.6136 70.2727 54.3068 70.0227 55.6705 69.5227C57.0341 69.0227 58.0682 68.3295 58.7727 67.4432C59.4773 66.5568 59.8409 65.5455 59.8636 64.4091C59.8409 63.3409 59.4886 62.4091 58.8068 61.6136C58.1477 60.7955 57.0568 60.0682 55.5341 59.4318C54.0114 58.7727 51.9545 58.1591 49.3636 57.5909L42.4091 56.0909C36.2273 54.75 31.3523 52.5114 27.7841 49.375C24.2386 46.2159 22.4773 41.9091 22.5 36.4545C22.4773 32.0227 23.6591 28.1477 26.0455 24.8295C28.4545 21.4886 31.7841 18.8864 36.0341 17.0227C40.3068 15.1591 45.2045 14.2273 50.7273 14.2273C56.3636 14.2273 61.2386 15.1705 65.3523 17.0568C69.4659 18.9432 72.6364 21.6023 74.8636 25.0341C77.1136 28.4432 78.25 32.4318 78.2727 37H60.1364Z" fill="white"/>
</g>
<defs>
<clipPath id="clip0_140_2">
<rect width="100" height="100" fill="white"/>
</clipPath>
</defs>
</svg>
